<svg xmlns="http://www.w3.org/2000/svg" viewBox="-15.78 -15.78 628.10 470.14" width="628.10" height="470.14"><title>Wayscope</title><defs><linearGradient id="ws-orange" gradientUnits="userSpaceOnUse" x1="62" y1="0" x2="572" y2="0"><stop offset="0" stop-color="#FF8312"/><stop offset="1" stop-color="#FFA10A"/></linearGradient></defs><g transform="translate(1.77,-84.00)"><g fill="none" stroke="url(#ws-orange)" stroke-width="12" stroke-linecap="round" stroke-linejoin="round"><path d="M62.0,90.0 L141.8,90.0 A14.0,14.0 0 0 1 154.0,97.1 L202.8,183.4 A14.0,14.0 0 0 0 227.2,183.4 L267.8,111.6 A14.0,14.0 0 0 1 292.2,111.6 L332.8,183.4 A14.0,14.0 0 0 0 357.2,183.4 L406.0,97.1 A14.0,14.0 0 0 1 418.2,90.0 L449.2,90.0 A14.0,14.0 0 0 1 459.1,94.1 L488.4,123.4"/><path d="M62.0,158.0 L141.8,158.0 A14.0,14.0 0 0 1 154.0,165.1 L202.8,251.4 A14.0,14.0 0 0 0 227.2,251.4 L267.8,179.6 A14.0,14.0 0 0 1 292.2,179.6 L332.8,251.4 A14.0,14.0 0 0 0 357.2,251.4 L406.0,165.1 A14.0,14.0 0 0 1 418.2,158.0 L474.0,158.0"/><path d="M62.0,226.0 L141.8,226.0 A14.0,14.0 0 0 1 154.0,233.1 L202.8,319.4 A14.0,14.0 0 0 0 227.2,319.4 L267.8,247.6 A14.0,14.0 0 0 1 292.2,247.6 L332.8,319.4 A14.0,14.0 0 0 0 357.2,319.4 L406.0,233.1 A14.0,14.0 0 0 1 418.2,226.0 L449.2,226.0 A14.0,14.0 0 0 0 459.1,221.9 L488.4,192.6"/><circle cx="523.0" cy="158" r="49"/></g><g fill="#D2931F"><circle cx="30" cy="90" r="15"/><circle cx="30" cy="158" r="15"/><circle cx="30" cy="226" r="15"/><circle cx="523.0" cy="158" r="20"/></g></g><path transform="translate(0.00,434.48)" fill="#1F2024" d="M24.53 0 3.03 -82.06H16.95L35.04 -8.91L30.21 -11.58H42.52L37.15 -8.91L51.65 -78.8H63.65L46.4 0ZM73.74 0 54.85 -78.8H67.33L83.83 -8.91L78.63 -11.58H90.88L85.85 -8.91L101.92 -82.06H115.24L95.85 0Z M163.13 0V-18.04H160.94V-38.5Q160.94 -44.2 158.04 -47.08Q155.15 -49.96 149.39 -49.96Q146.24 -49.96 142.42 -49.85Q138.6 -49.74 134.91 -49.6Q131.23 -49.46 128.42 -49.23V-60.59Q130.95 -60.81 133.95 -60.99Q136.94 -61.18 140.13 -61.25Q143.32 -61.32 146.18 -61.32Q155.48 -61.32 161.54 -58.97Q167.6 -56.62 170.59 -51.51Q173.58 -46.4 173.58 -37.91V0ZM143.46 1.57Q136.77 1.57 131.84 -0.74Q126.91 -3.06 124.21 -7.46Q121.51 -11.86 121.51 -18.04Q121.51 -24.59 124.59 -28.87Q127.66 -33.16 133.43 -35.31Q139.19 -37.46 147.11 -37.46H162.34V-28.75H146.77Q140.84 -28.75 137.67 -25.87Q134.49 -22.99 134.49 -18.41Q134.49 -13.85 137.67 -11.06Q140.84 -8.26 146.77 -8.26Q150.31 -8.26 153.45 -9.55Q156.58 -10.85 158.65 -13.92Q160.71 -17 160.94 -22.42L164.31 -18.1Q163.75 -11.69 161.22 -7.33Q158.69 -2.98 154.25 -0.7Q149.81 1.57 143.46 1.57Z M188.45 23.72V12.2H198.51Q202.02 12.2 204.45 11.31Q206.88 10.43 208.47 8.36Q210.06 6.29 211.04 2.84L228.69 -60.53H241.45L222.37 5.93Q220.57 12.31 217.32 16.24Q214.08 20.18 209.19 21.95Q204.3 23.72 197.44 23.72ZM207.11 -1.35V-12.03H220.15V-1.35ZM203.9 -1.35 183.28 -60.53H196.65L216.32 -1.35Z M274.21 1.85Q261.99 1.85 255.2 -3.33Q248.42 -8.51 248.11 -17.62H260.19Q260.47 -14.3 263.72 -11.48Q266.96 -8.66 274.33 -8.66Q280.7 -8.66 284.29 -11.1Q287.87 -13.54 287.87 -17.34Q287.87 -20.71 285.2 -22.65Q282.53 -24.59 276.32 -25.24L270.36 -25.85Q260.98 -26.84 255.53 -31.32Q250.07 -35.8 250.07 -43.53Q250.07 -49.54 253.11 -53.73Q256.14 -57.92 261.51 -60.12Q266.88 -62.33 273.85 -62.33Q284.55 -62.33 291.19 -57.59Q297.82 -52.86 298.1 -43.64H286.02Q285.82 -47.04 282.77 -49.43Q279.72 -51.82 273.79 -51.82Q268.2 -51.82 265.21 -49.57Q262.21 -47.32 262.21 -43.81Q262.21 -40.69 264.46 -38.89Q266.71 -37.09 271.82 -36.53L277.78 -35.91Q288.01 -34.85 294.01 -30.27Q300.01 -25.68 300.01 -17.62Q300.01 -11.8 296.75 -7.4Q293.49 -3.01 287.69 -0.58Q281.88 1.85 274.21 1.85Z M340.73 2.08Q332.89 2.08 327.14 -0.6Q321.4 -3.29 317.62 -7.83Q313.84 -12.36 311.95 -17.93Q310.07 -23.49 310.07 -29.17V-31.25Q310.07 -37.18 311.98 -42.77Q313.89 -48.36 317.73 -52.82Q321.56 -57.27 327.27 -59.94Q332.97 -62.61 340.56 -62.61Q348.34 -62.61 354.48 -59.66Q360.62 -56.71 364.33 -51.4Q368.04 -46.09 368.49 -38.95H355.74Q355.06 -44.09 351.17 -47.56Q347.28 -51.03 340.56 -51.03Q334.77 -51.03 330.94 -48.33Q327.1 -45.64 325.19 -40.94Q323.28 -36.25 323.28 -30.21Q323.28 -24.42 325.15 -19.69Q327.02 -14.95 330.89 -12.22Q334.77 -9.5 340.73 -9.5Q345.31 -9.5 348.63 -11.13Q351.94 -12.76 353.94 -15.55Q355.93 -18.35 356.35 -21.92H369.11Q368.75 -14.64 364.92 -9.27Q361.1 -3.91 354.85 -0.91Q348.6 2.08 340.73 2.08Z M411.15 2.08Q403.2 2.08 397.13 -0.56Q391.06 -3.2 386.87 -7.63Q382.68 -12.06 380.55 -17.62Q378.41 -23.18 378.41 -29.11V-31.3Q378.41 -37.29 380.62 -42.92Q382.82 -48.56 387.07 -52.99Q391.31 -57.41 397.38 -60.01Q403.45 -62.61 411.15 -62.61Q418.88 -62.61 424.93 -60.01Q430.99 -57.41 435.23 -52.99Q439.48 -48.56 441.68 -42.92Q443.89 -37.29 443.89 -31.3V-29.11Q443.89 -23.18 441.75 -17.62Q439.62 -12.06 435.43 -7.63Q431.24 -3.2 425.17 -0.56Q419.1 2.08 411.15 2.08ZM411.15 -9.44Q417.39 -9.44 421.75 -12.18Q426.1 -14.92 428.39 -19.63Q430.68 -24.34 430.68 -30.21Q430.68 -36.22 428.34 -40.93Q425.99 -45.64 421.62 -48.36Q417.25 -51.09 411.15 -51.09Q405.14 -51.09 400.73 -48.36Q396.31 -45.64 393.97 -40.93Q391.62 -36.22 391.62 -30.21Q391.62 -24.34 393.91 -19.63Q396.2 -14.92 400.57 -12.18Q404.94 -9.44 411.15 -9.44Z M458.9 22.48V-60.53H469.35V-34.37L467.38 -34.54Q467.89 -44.06 471.37 -50.26Q474.86 -56.46 480.59 -59.48Q486.32 -62.5 493.24 -62.5Q499.73 -62.5 505.02 -60.07Q510.32 -57.64 514.11 -53.38Q517.91 -49.12 519.92 -43.47Q521.93 -37.82 521.93 -31.39V-29.2Q521.93 -22.76 519.88 -17.1Q517.82 -11.44 514.02 -7.15Q510.21 -2.87 504.9 -0.42Q499.59 2.02 493.09 2.02Q486.49 2.02 480.73 -0.8Q474.97 -3.63 471.3 -9.79Q467.63 -15.96 467.16 -25.83L472.1 -17.56V22.48ZM490.28 -9.27Q495.85 -9.27 499.99 -11.94Q504.14 -14.61 506.43 -19.38Q508.72 -24.14 508.72 -30.29Q508.72 -36.56 506.43 -41.24Q504.14 -45.92 500.01 -48.56Q495.88 -51.2 490.28 -51.2Q485.31 -51.2 481.05 -48.97Q476.8 -46.73 474.22 -42.5Q471.65 -38.27 471.65 -32.32V-27.48Q471.65 -21.75 474.29 -17.69Q476.94 -13.63 481.21 -11.45Q485.48 -9.27 490.28 -9.27Z M563.32 2.08Q555.45 2.08 549.63 -0.62Q543.82 -3.32 540.08 -7.8Q536.34 -12.28 534.49 -17.84Q532.63 -23.41 532.63 -29.23V-31.3Q532.63 -37.26 534.49 -42.84Q536.34 -48.42 540.07 -52.87Q543.79 -57.33 549.45 -59.97Q555.11 -62.61 562.65 -62.61Q572.48 -62.61 578.99 -58.32Q585.49 -54.04 588.74 -47.22Q591.98 -40.41 591.98 -32.6V-27.34H538.31V-36.17H583.13L579.51 -31.64Q579.51 -37.77 577.64 -42.18Q575.77 -46.59 572.05 -49.01Q568.32 -51.43 562.65 -51.43Q556.83 -51.43 552.92 -48.77Q549.02 -46.11 547.06 -41.38Q545.11 -36.64 545.11 -30.24Q545.11 -24.14 547.04 -19.36Q548.96 -14.58 553.01 -11.84Q557.05 -9.1 563.32 -9.1Q569.7 -9.1 573.72 -11.83Q577.74 -14.56 578.69 -18.29H590.94Q589.68 -12.08 585.9 -7.47Q582.12 -2.87 576.37 -0.39Q570.63 2.08 563.32 2.08Z"/></svg>